<?xml version="1.0" encoding="UTF-8" standalone="no"?>
<!DOCTYPE svg PUBLIC "-//W3C//DTD SVG 1.1//EN"
 "http://www.w3.org/Graphics/SVG/1.1/DTD/svg11.dtd">
<!-- Generated by graphviz version 7.0.0 (20221023.0053)
 -->
<!-- Pages: 1 -->
<svg width="833pt" height="404pt"
 viewBox="0.00 0.00 833.25 404.00" xmlns="http://www.w3.org/2000/svg" xmlns:xlink="http://www.w3.org/1999/xlink">
<g id="graph0" class="graph" transform="scale(1 1) rotate(0) translate(4 400)">
<polygon fill="white" stroke="none" points="-4,4 -4,-400 829.25,-400 829.25,4 -4,4"/>
<!-- [root] aws_instance.example (expand) -->
<g id="node1" class="node">
<title>[root] aws_instance.example (expand)</title>
<polygon fill="none" stroke="black" points="482.27,-252 343.27,-252 343.27,-216 482.27,-216 482.27,-252"/>
<text text-anchor="middle" x="412.77" y="-230.3" font-family="Times,serif" font-size="14.00">aws_instance.example</text>
</g>
<!-- [root] aws_security_group.instance (expand) -->
<g id="node2" class="node">
<title>[root] aws_security_group.instance (expand)</title>
<polygon fill="none" stroke="black" points="499.27,-180 326.27,-180 326.27,-144 499.27,-144 499.27,-180"/>
<text text-anchor="middle" x="412.77" y="-158.3" font-family="Times,serif" font-size="14.00">aws_security_group.instance</text>
</g>
<!-- [root] aws_instance.example (expand)&#45;&gt;[root] aws_security_group.instance (expand) -->
<g id="edge1" class="edge">
<title>[root] aws_instance.example (expand)&#45;&gt;[root] aws_security_group.instance (expand)</title>
<path fill="none" stroke="black" d="M412.77,-215.7C412.77,-208.41 412.77,-199.73 412.77,-191.54"/>
<polygon fill="black" stroke="black" points="416.27,-191.62 412.77,-181.62 409.27,-191.62 416.27,-191.62"/>
</g>
<!-- [root] provider[&quot;registry.terraform.io/hashicorp/aws&quot;] -->
<g id="node3" class="node">
<title>[root] provider[&quot;registry.terraform.io/hashicorp/aws&quot;]</title>
<polygon fill="none" stroke="black" points="252.77,-108 0.23,-90 252.77,-72 505.3,-90 252.77,-108"/>
<text text-anchor="middle" x="252.77" y="-86.3" font-family="Times,serif" font-size="14.00">provider[&quot;registry.terraform.io/hashicorp/aws&quot;]</text>
</g>
<!-- [root] aws_security_group.instance (expand)&#45;&gt;[root] provider[&quot;registry.terraform.io/hashicorp/aws&quot;] -->
<g id="edge2" class="edge">
<title>[root] aws_security_group.instance (expand)&#45;&gt;[root] provider[&quot;registry.terraform.io/hashicorp/aws&quot;]</title>
<path fill="none" stroke="black" d="M372.81,-143.52C349.93,-133.51 321.17,-120.93 297.53,-110.59"/>
<polygon fill="black" stroke="black" points="299.03,-107.42 288.46,-106.62 296.22,-113.83 299.03,-107.42"/>
</g>
<!-- [root] var.server_port -->
<g id="node6" class="node">
<title>[root] var.server_port</title>
<polygon fill="none" stroke="black" points="615.77,-108 523.77,-108 523.77,-72 621.77,-72 621.77,-102 615.77,-108"/>
<polyline fill="none" stroke="black" points="615.77,-108 615.77,-102"/>
<polyline fill="none" stroke="black" points="621.77,-102 615.77,-102"/>
<text text-anchor="middle" x="572.77" y="-86.3" font-family="Times,serif" font-size="14.00">var.server_port</text>
</g>
<!-- [root] aws_security_group.instance (expand)&#45;&gt;[root] var.server_port -->
<g id="edge3" class="edge">
<title>[root] aws_security_group.instance (expand)&#45;&gt;[root] var.server_port</title>
<path fill="none" stroke="black" d="M452.73,-143.52C473.91,-134.25 500.12,-122.78 522.65,-112.93"/>
<polygon fill="black" stroke="black" points="523.89,-116.2 531.65,-108.99 521.09,-109.79 523.89,-116.2"/>
</g>
<!-- [root] var.profile -->
<g id="node4" class="node">
<title>[root] var.profile</title>
<polygon fill="none" stroke="black" points="238.27,-36 171.27,-36 171.27,0 244.27,0 244.27,-30 238.27,-36"/>
<polyline fill="none" stroke="black" points="238.27,-36 238.27,-30"/>
<polyline fill="none" stroke="black" points="244.27,-30 238.27,-30"/>
<text text-anchor="middle" x="207.77" y="-14.3" font-family="Times,serif" font-size="14.00">var.profile</text>
</g>
<!-- [root] provider[&quot;registry.terraform.io/hashicorp/aws&quot;]&#45;&gt;[root] var.profile -->
<g id="edge6" class="edge">
<title>[root] provider[&quot;registry.terraform.io/hashicorp/aws&quot;]&#45;&gt;[root] var.profile</title>
<path fill="none" stroke="black" d="M242.1,-72.41C237.04,-64.54 230.87,-54.93 225.15,-46.04"/>
<polygon fill="black" stroke="black" points="228.15,-44.24 219.8,-37.72 222.27,-48.02 228.15,-44.24"/>
</g>
<!-- [root] var.region -->
<g id="node5" class="node">
<title>[root] var.region</title>
<polygon fill="none" stroke="black" points="327.27,-36 262.27,-36 262.27,0 333.27,0 333.27,-30 327.27,-36"/>
<polyline fill="none" stroke="black" points="327.27,-36 327.27,-30"/>
<polyline fill="none" stroke="black" points="333.27,-30 327.27,-30"/>
<text text-anchor="middle" x="297.77" y="-14.3" font-family="Times,serif" font-size="14.00">var.region</text>
</g>
<!-- [root] provider[&quot;registry.terraform.io/hashicorp/aws&quot;]&#45;&gt;[root] var.region -->
<g id="edge7" class="edge">
<title>[root] provider[&quot;registry.terraform.io/hashicorp/aws&quot;]&#45;&gt;[root] var.region</title>
<path fill="none" stroke="black" d="M263.43,-72.41C268.49,-64.54 274.67,-54.93 280.38,-46.04"/>
<polygon fill="black" stroke="black" points="283.27,-48.02 285.73,-37.72 277.38,-44.24 283.27,-48.02"/>
</g>
<!-- [root] output.public_ip (expand) -->
<g id="node7" class="node">
<title>[root] output.public_ip (expand)</title>
<ellipse fill="none" stroke="black" cx="227.77" cy="-306" rx="124.58" ry="18"/>
<text text-anchor="middle" x="227.77" y="-302.3" font-family="Times,serif" font-size="14.00">[root] output.public_ip (expand)</text>
</g>
<!-- [root] output.public_ip (expand)&#45;&gt;[root] aws_instance.example (expand) -->
<g id="edge4" class="edge">
<title>[root] output.public_ip (expand)&#45;&gt;[root] aws_instance.example (expand)</title>
<path fill="none" stroke="black" d="M270.68,-288.76C296.02,-279.17 328.43,-266.91 355.89,-256.52"/>
<polygon fill="black" stroke="black" points="357,-259.84 365.12,-253.03 354.53,-253.3 357,-259.84"/>
</g>
<!-- [root] provider[&quot;registry.terraform.io/hashicorp/aws&quot;] (close) -->
<g id="node8" class="node">
<title>[root] provider[&quot;registry.terraform.io/hashicorp/aws&quot;] (close)</title>
<ellipse fill="none" stroke="black" cx="597.77" cy="-306" rx="227.46" ry="18"/>
<text text-anchor="middle" x="597.77" y="-302.3" font-family="Times,serif" font-size="14.00">[root] provider[&quot;registry.terraform.io/hashicorp/aws&quot;] (close)</text>
</g>
<!-- [root] provider[&quot;registry.terraform.io/hashicorp/aws&quot;] (close)&#45;&gt;[root] aws_instance.example (expand) -->
<g id="edge5" class="edge">
<title>[root] provider[&quot;registry.terraform.io/hashicorp/aws&quot;] (close)&#45;&gt;[root] aws_instance.example (expand)</title>
<path fill="none" stroke="black" d="M552.51,-287.88C527.5,-278.41 496.2,-266.57 469.56,-256.49"/>
<polygon fill="black" stroke="black" points="470.85,-253.23 460.26,-252.97 468.37,-259.78 470.85,-253.23"/>
</g>
<!-- [root] root -->
<g id="node9" class="node">
<title>[root] root</title>
<ellipse fill="none" stroke="black" cx="412.77" cy="-378" rx="47.39" ry="18"/>
<text text-anchor="middle" x="412.77" y="-374.3" font-family="Times,serif" font-size="14.00">[root] root</text>
</g>
<!-- [root] root&#45;&gt;[root] output.public_ip (expand) -->
<g id="edge8" class="edge">
<title>[root] root&#45;&gt;[root] output.public_ip (expand)</title>
<path fill="none" stroke="black" d="M380.12,-364.65C352.81,-354.31 313.31,-339.37 281.38,-327.28"/>
<polygon fill="black" stroke="black" points="282.87,-324.11 272.28,-323.84 280.39,-330.65 282.87,-324.11"/>
</g>
<!-- [root] root&#45;&gt;[root] provider[&quot;registry.terraform.io/hashicorp/aws&quot;] (close) -->
<g id="edge9" class="edge">
<title>[root] root&#45;&gt;[root] provider[&quot;registry.terraform.io/hashicorp/aws&quot;] (close)</title>
<path fill="none" stroke="black" d="M445.42,-364.65C472.16,-354.53 510.61,-339.98 542.19,-328.03"/>
<polygon fill="black" stroke="black" points="543.08,-331.44 551.19,-324.62 540.6,-324.89 543.08,-331.44"/>
</g>
</g>
</svg>
